<svg width="424" height="343" viewBox="0 0 424 343" fill="none" xmlns="http://www.w3.org/2000/svg">
<path d="M339.043 225.608L317.96 212.838L339.043 200.067L360.124 212.838L339.043 225.608Z" fill="#020908" stroke="white" stroke-linejoin="round"/>
<path d="M339.044 225.473L360.127 212.702V238.243L339.044 251.013V225.473Z" fill="#020908" stroke="white" stroke-linejoin="round"/>
<path d="M339.042 225.608L317.959 212.837V238.378L339.042 251.148V225.608Z" fill="#020908" stroke="white" stroke-linejoin="round"/>
<path d="M338.952 90.7075L317.778 77.8921L338.952 65.0768L360.124 77.8921L338.952 90.7075Z" fill="#020908" stroke="white" stroke-linejoin="round"/>
<path d="M338.951 90.7075L360.124 77.8921V103.523L338.951 116.338V90.7075Z" fill="#020908" stroke="white" stroke-linejoin="round"/>
<path d="M338.951 90.7075L317.778 77.8921V103.523L338.951 116.338V90.7075Z" fill="#020908" stroke="white" stroke-linejoin="round"/>
<path d="M317.78 77.8921L296.606 65.0767L317.78 52.2614L338.952 65.0767L317.78 77.8921Z" fill="#020908" stroke="white" stroke-linejoin="round"/>
<path d="M317.777 77.8921L338.95 65.0768V90.7075L317.777 103.523V77.8921Z" fill="#020908" stroke="white" stroke-linejoin="round"/>
<path d="M317.779 77.8921L296.606 65.0768V90.7075L317.779 103.523V77.8921Z" fill="#020908" stroke="white" stroke-linejoin="round"/>
<path d="M275.433 52.2612L254.26 39.4459L275.433 26.6305L296.605 39.4459L275.433 52.2612Z" fill="#020908" stroke="white" stroke-linejoin="round"/>
<path d="M297.012 65.077L276.246 52.2617L297.012 39.4463L317.777 52.2617L297.012 65.077Z" fill="#020908" stroke="white" stroke-linejoin="round"/>
<path d="M317.78 26.6307L296.606 13.8154L317.78 1L338.952 13.8154L317.78 26.6307Z" fill="#020908" stroke="white" stroke-linejoin="round"/>
<path d="M276.248 77.8921L296.606 65.0768V90.7075L276.248 103.523V77.8921Z" fill="#020908" stroke="white" stroke-linejoin="round"/>
<path d="M276.248 52.2617L296.606 39.4463V65.077L276.248 77.8924V52.2617Z" fill="#020908" stroke="white" stroke-linejoin="round"/>
<path d="M296.606 65.0767L317.778 52.2614V77.8921L296.606 90.7074V65.0767Z" fill="#020908" stroke="white" stroke-linejoin="round"/>
<path d="M317.777 26.6307L338.95 13.8153V39.446L317.777 52.2614V26.6307Z" fill="#020908" stroke="white" stroke-linejoin="round"/>
<path d="M276.248 103.238L296.606 90.7073V115.768L276.248 128.299V103.238Z" fill="#020908" stroke="white" stroke-linejoin="round"/>
<path d="M276.248 129.154L296.606 116.339V141.969L276.248 154.785V129.154Z" fill="#020908" stroke="white" stroke-linejoin="round"/>
<path d="M276.247 103.238L254.26 90.7073V115.768L276.247 128.299V103.238Z" fill="#020908" stroke="white" stroke-linejoin="round"/>
<path d="M276.247 77.8921L254.26 65.0768V90.7075L276.247 103.523V77.8921Z" fill="#020908" stroke="white" stroke-linejoin="round"/>
<path d="M276.247 129.154L254.26 116.339V141.969L276.247 154.785V129.154Z" fill="#020908" stroke="white" stroke-linejoin="round"/>
<path d="M276.247 52.2617L254.26 39.4463V65.077L276.247 77.8924V52.2617Z" fill="#020908" stroke="white" stroke-linejoin="round"/>
<path d="M317.779 26.6307L296.606 13.8153V39.446L317.779 52.2614V26.6307Z" fill="#020908" stroke="white" stroke-linejoin="round"/>
<path d="M128.037 192.945L106.864 180.415V205.476L128.037 218.007V192.945Z" fill="#020908" stroke="white" stroke-linejoin="round"/>
<path d="M212.726 141.399L190.739 128.299V154.499L212.726 167.6V141.399Z" fill="#020908" stroke="white" stroke-linejoin="round"/>
<path d="M128.037 193.23L106.864 180.415L128.037 167.6L149.21 180.415L128.037 193.23Z" fill="#020908" stroke="white" stroke-linejoin="round"/>
<path d="M211.912 141.969L190.739 129.154L211.912 116.339L233.085 129.154L211.912 141.969Z" fill="#020908" stroke="white" stroke-linejoin="round"/>
<path d="M149.208 180.415L128.035 167.6L149.208 154.784L170.381 167.6L149.208 180.415Z" fill="#020908" stroke="white" stroke-linejoin="round"/>
<path d="M233.495 128.299L212.729 115.911L233.495 103.523L254.26 115.911L233.495 128.299Z" fill="#020908" stroke="white" stroke-linejoin="round"/>
<path d="M106.864 154.784L85.6904 141.542L106.864 128.299L128.036 141.542L106.864 154.784Z" fill="#020908" stroke="white" stroke-linejoin="round"/>
<path d="M191.554 103.523L170.381 90.7075L191.554 77.8921L212.726 90.7075L191.554 103.523Z" fill="#020908" stroke="white" stroke-linejoin="round"/>
<path d="M128.037 141.115L106.864 128.727L128.037 116.339L149.21 128.727L128.037 141.115Z" fill="#020908" stroke="white" stroke-linejoin="round"/>
<path d="M211.912 90.7075L190.739 77.8921L211.912 65.0768L233.085 77.8921L211.912 90.7075Z" fill="#020908" stroke="white" stroke-linejoin="round"/>
<path d="M149.208 128.299L128.035 115.911L149.208 103.523L170.381 115.911L149.208 128.299Z" fill="#020908" stroke="white" stroke-linejoin="round"/>
<path d="M233.495 77.8921L212.729 65.0767L233.495 52.2614L254.26 65.0767L233.495 77.8921Z" fill="#020908" stroke="white" stroke-linejoin="round"/>
<path d="M106.864 230.822L85.6904 218.007L106.864 205.191L128.036 218.007L106.864 230.822Z" fill="#020908" stroke="white" stroke-linejoin="round"/>
<path d="M191.554 180.415L170.381 167.6L191.554 154.784L212.726 167.6L191.554 180.415Z" fill="#020908" stroke="white" stroke-linejoin="round"/>
<path d="M106.862 154.215L128.035 141.115V167.315L106.862 180.415V154.215Z" fill="#020908" stroke="white" stroke-linejoin="round"/>
<path d="M190.741 103.238L212.729 90.7073V115.768L190.741 128.299V103.238Z" fill="#020908" stroke="white" stroke-linejoin="round"/>
<path d="M106.862 180.13L128.035 167.6V192.661L106.862 205.191V180.13Z" fill="#020908" stroke="white" stroke-linejoin="round"/>
<path d="M190.741 129.154L212.729 116.339V141.969L190.741 154.785V129.154Z" fill="#020908" stroke="white" stroke-linejoin="round"/>
<path d="M128.035 192.945L149.208 180.415V205.476L128.035 218.007V192.945Z" fill="#020908" stroke="white" stroke-linejoin="round"/>
<path d="M212.728 141.399L233.087 128.299V154.499L212.728 167.6V141.399Z" fill="#020908" stroke="white" stroke-linejoin="round"/>
<path d="M149.208 180.13L170.381 167.6V192.661L149.208 205.191V180.13Z" fill="#020908" stroke="white" stroke-linejoin="round"/>
<path d="M233.087 129.154L254.26 116.339V141.969L233.087 154.785V129.154Z" fill="#020908" stroke="white" stroke-linejoin="round"/>
<path d="M149.208 205.761L170.381 193.231V218.292L149.208 230.822V205.761Z" fill="#020908" stroke="white" stroke-linejoin="round"/>
<path d="M233.087 154.784L254.26 141.969V167.6L233.087 180.415V154.784Z" fill="#020908" stroke="white" stroke-linejoin="round"/>
<path d="M128.035 218.007L149.208 205.191V230.822L128.035 243.637V218.007Z" fill="#020908" stroke="white" stroke-linejoin="round"/>
<path d="M212.728 167.6L233.087 154.784V180.415L212.728 193.231V167.6Z" fill="#020908" stroke="white" stroke-linejoin="round"/>
<path d="M106.862 230.822L128.035 218.007V243.638L106.862 256.453V230.822Z" fill="#020908" stroke="white" stroke-linejoin="round"/>
<path d="M190.741 180.13L212.729 167.6V192.661L190.741 205.191V180.13Z" fill="#020908" stroke="white" stroke-linejoin="round"/>
<path d="M128.035 141.399L149.208 128.299V154.499L128.035 167.6V141.399Z" fill="#020908" stroke="white" stroke-linejoin="round"/>
<path d="M212.728 90.7075L233.087 77.8921V103.523L212.728 116.338V90.7075Z" fill="#020908" stroke="white" stroke-linejoin="round"/>
<path d="M149.208 129.154L170.381 116.339V141.969L149.208 154.785V129.154Z" fill="#020908" stroke="white" stroke-linejoin="round"/>
<path d="M233.087 77.8921L254.26 65.0768V90.7075L233.087 103.523V77.8921Z" fill="#020908" stroke="white" stroke-linejoin="round"/>
<path d="M106.863 154.215L85.6904 141.115V167.315L106.863 180.415V154.215Z" fill="#020908" stroke="white" stroke-linejoin="round"/>
<path d="M190.739 103.238L170.381 90.7073V115.768L190.739 128.299V103.238Z" fill="#020908" stroke="white" stroke-linejoin="round"/>
<path d="M106.863 180.13L85.6904 167.6V192.661L106.863 205.191V180.13Z" fill="#020908" stroke="white" stroke-linejoin="round"/>
<path d="M190.739 129.154L170.381 116.339V141.969L190.739 154.785V129.154Z" fill="#020908" stroke="white" stroke-linejoin="round"/>
<path d="M106.863 230.822L85.6904 218.007V243.638L106.863 256.453V230.822Z" fill="#020908" stroke="white" stroke-linejoin="round"/>
<path d="M190.739 180.13L170.381 167.6V192.661L190.739 205.191V180.13Z" fill="#020908" stroke="white" stroke-linejoin="round"/>
<path d="M22.5795 205.191L1.81348 192.803L22.5795 180.415L43.3447 192.803L22.5795 205.191Z" fill="#020908" stroke="white" stroke-linejoin="round"/>
<path d="M43.3461 269.268L22.1729 256.453L43.3461 243.638L64.5184 256.453L43.3461 269.268Z" fill="#020908" stroke="white" stroke-linejoin="round"/>
<path d="M64.5179 205.191L43.3447 192.803L64.5179 180.415L85.6903 192.803L64.5179 205.191Z" fill="#020908" stroke="white" stroke-linejoin="round"/>
<path d="M22.1719 230.822L43.3447 218.007V243.638L22.1719 256.453V230.822Z" fill="#020908" stroke="white" stroke-linejoin="round"/>
<path d="M22.1719 205.761L43.3447 193.231V218.292L22.1719 230.822V205.761Z" fill="#020908" stroke="white" stroke-linejoin="round"/>
<path d="M22.1719 256.453L43.3447 243.638V269.268L22.1719 282.084V256.453Z" fill="#020908" stroke="white" stroke-linejoin="round"/>
<path d="M22.1719 282.084L43.3447 269.268V294.899L22.1719 307.714V282.084Z" fill="#020908" stroke="white" stroke-linejoin="round"/>
<path d="M64.5176 205.761L85.6904 193.231V218.292L64.5176 230.822V205.761Z" fill="#020908" stroke="white" stroke-linejoin="round"/>
<path d="M64.5176 230.822L85.6904 218.007V243.638L64.5176 256.453V230.822Z" fill="#020908" stroke="white" stroke-linejoin="round"/>
<path d="M43.3458 269.268L64.5186 256.453V282.084L43.3458 294.899V269.268Z" fill="#020908" stroke="white" stroke-linejoin="round"/>
<path d="M22.1719 256.453L1.81348 243.638V269.268L22.1719 282.084V256.453Z" fill="#020908" stroke="white" stroke-linejoin="round"/>
<path d="M22.1719 230.822L1.81348 218.007V243.638L22.1719 256.453V230.822Z" fill="#020908" stroke="white" stroke-linejoin="round"/>
<path d="M64.5175 230.822L43.3447 218.007V243.638L64.5175 256.453V230.822Z" fill="#020908" stroke="white" stroke-linejoin="round"/>
<path d="M64.5175 205.761L43.3447 193.231V218.292L64.5175 230.822V205.761Z" fill="#020908" stroke="white" stroke-linejoin="round"/>
<path d="M22.1719 282.084L1.81348 269.268V294.899L22.1719 307.714V282.084Z" fill="#020908" stroke="white" stroke-linejoin="round"/>
<path d="M22.1719 205.761L1.81348 193.231V218.292L22.1719 230.822V205.761Z" fill="#020908" stroke="white" stroke-linejoin="round"/>
<path d="M22.0836 143.638L1.00098 130.868L22.0836 118.098L43.1653 130.868L22.0836 143.638Z" fill="#020908" stroke="white" stroke-linejoin="round"/>
<path d="M22.0844 143.502L43.167 130.732V156.273L22.0844 169.043V143.502Z" fill="#020908" stroke="white" stroke-linejoin="round"/>
<path d="M22.0826 143.638L1 130.867V156.408L22.0826 169.178V143.638Z" fill="#020908" stroke="white" stroke-linejoin="round"/>
<path d="M339.043 149.226L317.96 136.456L339.043 123.686L360.124 136.456L339.043 149.226Z" fill="#020908" stroke="white" stroke-linejoin="round"/>
<path d="M339.044 149.091L360.127 136.321V161.861L339.044 174.632V149.091Z" fill="#020908" stroke="white" stroke-linejoin="round"/>
<path d="M339.042 149.226L317.959 136.456V161.996L339.042 174.767V149.226Z" fill="#020908" stroke="white" stroke-linejoin="round"/>
<path d="M149.929 316.891L128.847 304.121L149.929 291.351L171.011 304.121L149.929 316.891Z" fill="#020908" stroke="white" stroke-linejoin="round"/>
<path d="M149.932 316.756L171.015 303.986V329.526L149.932 342.296V316.756Z" fill="#020908" stroke="white" stroke-linejoin="round"/>
<path d="M149.93 316.891L128.848 304.121V329.662L149.93 342.432V316.891Z" fill="#020908" stroke="white" stroke-linejoin="round"/>
<path d="M43.3461 193.23L22.1729 180.415L43.3461 167.6L64.5184 180.415L43.3461 193.23Z" fill="#020908" stroke="white" stroke-linejoin="round"/>
<path d="M43.3458 192.945L64.5186 180.415V205.476L43.3458 218.007V192.945Z" fill="#020908" stroke="white" stroke-linejoin="round"/>
</svg>
